<svg version="1.2" xmlns="http://www.w3.org/2000/svg" viewBox="0 0 1440 900" width="1440" height="900">
	<title>info icon small copy</title>
	<style>
		.s0 { fill: #9aa7af } 
	</style>
	<g id="info icon small copy">
		<path id="Path 14843" fill-rule="evenodd" class="s0" d="m669.6 493c0 3.6-3 6.6-6.6 6.6-3.6 0-6.6-3-6.6-6.6 0-3.6 3-6.6 6.6-6.6 3.6 0 6.6 3 6.6 6.6zm-5.9 2.6v-2.6c0-0.4-0.3-0.7-0.7-0.7-0.4 0-0.7 0.3-0.7 0.7v2.6c0 0.4 0.3 0.7 0.7 0.7 0.4 0 0.7-0.3 0.7-0.7zm0-5.9h-1.4v1.3h1.4z"/>
	</g>
</svg>